<mxfile host="app.diagrams.net" modified="2023-08-26T17:31:32.245Z" agent="Mozilla/5.0 (Windows NT 10.0; Win64; x64) AppleWebKit/537.36 (KHTML, like Gecko) Chrome/116.0.0.0 Safari/537.36 Edg/116.0.1938.62" version="21.6.9" etag="8glRQoDZhoI99DvoO2vn" type="github">
  <diagram name="PÃ¡gina-1" id="UVlet5VqjJ2MAdgH7Ia7">
    <mxGraphModel>
      <root>
        <mxCell id="0" />
        <mxCell id="1" parent="0" />
      </root>
    </mxGraphModel>
  </diagram>
</mxfile>
